<?xml version="1.0" standalone="no"?><!DOCTYPE svg PUBLIC "-//W3C//DTD SVG 1.1//EN" "http://www.w3.org/Graphics/SVG/1.1/DTD/svg11.dtd"><svg t="1618746779397" class="icon" viewBox="0 0 1024 1024" version="1.1" xmlns="http://www.w3.org/2000/svg" p-id="1043" xmlns:xlink="http://www.w3.org/1999/xlink" width="200" height="200"><defs><style type="text/css"></style></defs><path d="M951.1 383.9L818 167.2C805.9 147 788.1 137 764.6 137H259.4c-23.5 0-41.3 10.1-53.4 30.2L72.9 382.9c-7.4 12.1-10.4 25.4-9.1 39.8 1.3 14.5 7.1 26.7 17.1 36.8l386.2 407.4c12.1 13.4 27.2 20.2 45.4 20.2 18.1 0 33.6-6.7 46.4-20.2l384.2-406.4c10.1-10.1 15.8-22.2 17.1-36.3 1.3-14-1.7-27.5-9.1-40.3z m-233 54.4H305.9c-13.8 0-25-11.2-25-25s11.2-25 25-25h412.2c13.8 0 25 11.2 25 25s-11.2 25-25 25z" p-id="1044"></path></svg>