<?xml version="1.0" standalone="no"?><!DOCTYPE svg PUBLIC "-//W3C//DTD SVG 1.1//EN" "http://www.w3.org/Graphics/SVG/1.1/DTD/svg11.dtd"><svg t="1618746898809" class="icon" viewBox="0 0 1024 1024" version="1.1" xmlns="http://www.w3.org/2000/svg" p-id="2129" xmlns:xlink="http://www.w3.org/1999/xlink" width="200" height="200"><defs><style type="text/css"></style></defs><path d="M440.1 814.7l1.1-11 12.9-119.1 52.5 53.3 150.5-152 7.9-8.3 137.2-135c8.7-5.7 18.5-9.8 28.4-12.5v-186c0-46.9-36.3-85.1-80.9-85.1H268.1c-44.6 0.4-80.9 38.6-80.9 85.1v541c0 46.9 36.3 85.1 80.9 85.1h166.3l5.7-55.5zM293 365.2h417.4v44.2H293v-44.2z m0 115.3h295.6v44.2H293v-44.2z m0 130.8h223.4v44.2H293v-44.2z m213.3 223l98.3 99-110.4 12.5 12.1-111.5zM899 636.6L801.1 538 531.2 810.1l97.9 98.7L899 636.6z m31.8-32.1c16.3-16.6 16.3-43.5 0-60.1l-38.2-38.9c-16.3-16.6-43.1-16.6-59.4 0l-6.8 7.2 97.9 98.7 6.5-6.9z" p-id="2130"></path></svg>